<svg width="48" height="48" viewBox="0 0 48 48" fill="none" xmlns="http://www.w3.org/2000/svg">
<path d="M23.9953 16L21.9965 12.0024L23.9953 8.0047L25.9941 12.0024L23.9953 16Z" fill="#C88BC4"/>
<path d="M23.9953 48L21.9965 40.0046L23.9953 32.0093L25.9941 40.0046L23.9953 48Z" fill="#C88BC4"/>
<path d="M44.7833 12.0023L38.8518 17.7385L30.9216 20.0069L36.853 14.2707L44.7833 12.0023Z" fill="#BBDEF2"/>
<path d="M11.147 14.2707L17.0784 20.0069L9.14815 17.7385L3.21672 12.0023L11.147 14.2707Z" fill="#BBDEF2"/>
<path d="M17.0691 19.9976L15.0703 16L17.0691 12.0023L19.068 16L17.0691 19.9976Z" fill="#BBDEF2"/>
<path d="M30.9308 12.0023L28.4672 15.7303L24.0046 16L26.4683 12.2719L30.9308 12.0023Z" fill="#BBDEF2"/>
<path d="M17.0691 28.0024L14.6054 31.7304L10.1429 32L12.6066 28.272L17.0691 28.0024Z" fill="#BBDEF2"/>
<path d="M23.9953 32L21.5317 35.728L17.0691 35.9976L19.5328 32.2696L23.9953 32Z" fill="#C88BC4"/>
<path d="M10.1429 23.9954L14.6054 24.265L17.0691 27.9931L12.6066 27.7234L10.1429 23.9954Z" fill="#BBDEF2"/>
<path d="M30.9308 28.0024L35.3933 28.272L37.857 32L33.3945 31.7304L30.9308 28.0024Z" fill="#BBDEF2"/>
<path d="M30.9308 19.9977L35.3933 20.2673L37.857 23.9954L33.3945 23.7257L30.9308 19.9977Z" fill="#BBDEF2"/>
<path d="M30.9308 35.9977L28.932 32L30.9308 28.0024L32.9297 32L30.9308 35.9977Z" fill="#C88BC4"/>
<path d="M30.9308 12.0023V3.9977H23.9953V16L30.9308 12.0023Z" fill="#6B80D2"/>
<path d="M23.9953 3.9977H17.0691V19.9977L23.9953 16V3.9977Z" fill="#C88BC4"/>
<path d="M17.0691 3.99768L23.9953 7.99535L30.9308 3.99768L23.9953 0L17.0691 3.99768Z" fill="#BBDEF2"/>
<path d="M23.9953 32.0001L30.9215 28.0024V44.0024L23.9953 48.0001V32.0001Z" fill="#6B80D2"/>
<path d="M23.9953 48L17.0691 44.0023V36.0069L23.9953 32.0093V48Z" fill="#C88BC4"/>
<path d="M17.0691 28.0024L6.67517 33.9989L3.20742 28.0024L10.1336 24.0047L17.0691 28.0024Z" fill="#BBDEF2"/>
<path d="M17.0691 28.0024L23.9953 32L10.1429 39.9954L6.67516 33.9989L17.0691 28.0024Z" fill="#6B80D2"/>
<path d="M3.21672 35.9977V28.0024L10.1429 32V39.9954L3.21672 35.9977Z" fill="#C88BC4"/>
<path d="M30.9308 19.9977L24.0046 16L37.857 8.0047L44.7832 12.0024L30.9308 19.9977Z" fill="#BBDEF2"/>
<path d="M44.7832 12.0023V19.9976L37.857 23.9953L30.9308 19.9976L44.7832 12.0023Z" fill="#6B80D2"/>
<path d="M30.9308 28.0024L41.3248 33.9989L37.857 39.9954L30.9308 35.9977V28.0024Z" fill="#C88BC4"/>
<path d="M30.9308 28.0023V20.007L44.7832 28.0023L41.3155 33.9988L30.9308 28.0023Z" fill="#BBDEF2"/>
<path d="M44.7833 35.9977L37.857 39.9954V32L44.7833 28.0024V35.9977Z" fill="#6B80D2"/>
<path d="M17.0691 19.9976V27.993L3.21672 19.9976V12.0023L17.0691 19.9976Z" fill="#C88BC4"/>
<path d="M3.21672 12.0024L10.1429 8.0047L17.0691 12.0024V19.9977L3.21672 12.0024Z" fill="#BBDEF2"/>
</svg>
